{
    "asset": {
        "version": "2.0",
        "generator": "Open Asset Import Library (assimp v5.0.5eb040c7)"
    },
    "accessors": [
        {
            "bufferView": 0,
            "byteOffset": 0,
            "componentType": 5126,
            "count": 2124,
            "type": "VEC3",
            "max": [
                5.349705696105957,
                21.53996467590332,
                16.652280807495118
            ],
            "min": [
                -5.349705696105957,
                -0.8947452306747437,
                -16.652280807495118
            ]
        },
        {
            "bufferView": 1,
            "byteOffset": 0,
            "componentType": 5125,
            "count": 12522,
            "type": "SCALAR",
            "max": [
                2123
            ],
            "min": [
                0
            ]
        }
    ],
    "buffers": [
        {
            "byteLength": 75576,
            "uri": "result.bin"
        }
    ],
    "bufferViews": [
        {
            "buffer": 0,
            "byteOffset": 0,
            "byteLength": 25488,
            "target": 34962
        },
        {
            "buffer": 0,
            "byteOffset": 25488,
            "byteLength": 50088,
            "target": 34963
        }
    ],
    "materials": [
        {
            "name": "defaultMat",
            "pbrMetallicRoughness": {
                "metallicFactor": 0.0
            }
        }
    ],
    "meshes": [
        {
            "name": "Mesh",
            "primitives": [
                {
                    "mode": 4,
                    "material": 0,
                    "indices": 1,
                    "attributes": {
                        "POSITION": 0
                    }
                }
            ]
        }
    ],
    "nodes": [
        {
            "name": "RootNode",
            "children": [
                1
            ]
        },
        {
            "name": "Mesh",
            "mesh": 0
        }
    ],
    "scenes": [
        {
            "nodes": [
                0
            ]
        }
    ],
    "scene": 0
}