{"asset":{"version":"2.0","generator":"babylon.js glTF exporter for 3dsmax 2021 v20201020.3"},"scene":0,"scenes":[{"nodes":[0,1]}],"nodes":[{"mesh":0,"rotation":[0.7071068,0.0,0.0,0.7071067],"scale":[0.254,0.254,0.254],"name":"Mesh"},{"name":"Default light"}],"meshes":[{"primitives":[{"attributes":{"POSITION":1,"TANGENT":2,"NORMAL":3,"TEXCOORD_0":4},"indices":0,"material":0}],"name":"Mesh"}],"accessors":[{"bufferView":0,"componentType":5123,"count":12522,"type":"SCALAR","name":"accessorIndices"},{"bufferView":1,"componentType":5126,"count":12522,"max":[0.135882527,0.422967941,0.0227265283],"min":[-0.135882527,-0.422967941,-0.5471151],"type":"VEC3","name":"accessorPositions"},{"bufferView":2,"componentType":5126,"count":12522,"type":"VEC4","name":"accessorTangents"},{"bufferView":1,"byteOffset":150264,"componentType":5126,"count":12522,"type":"VEC3","name":"accessorNormals"},{"bufferView":3,"componentType":5126,"count":12522,"type":"VEC2","name":"accessorUVs"}],"bufferViews":[{"buffer":0,"byteLength":25044,"name":"bufferViewScalar"},{"buffer":0,"byteOffset":25044,"byteLength":300528,"byteStride":12,"name":"bufferViewFloatVec3"},{"buffer":0,"byteOffset":325572,"byteLength":200352,"byteStride":16,"name":"bufferViewFloatVec4"},{"buffer":0,"byteOffset":525924,"byteLength":100176,"byteStride":8,"name":"bufferViewFloatVec2"}],"buffers":[{"uri":"SC_Arch_T1.bin","byteLength":626100}],"materials":[{"pbrMetallicRoughness":{"metallicFactor":0.0,"roughnessFactor":0.0},"name":"Material #25"}]}